<svg width="25" height="24" viewBox="0 0 25 24" fill="none" xmlns="http://www.w3.org/2000/svg">
<path fill-rule="evenodd" clip-rule="evenodd" d="M21.281 3.21888C21.3508 3.28854 21.4062 3.37131 21.444 3.46243C21.4818 3.55354 21.5013 3.65122 21.5013 3.74988C21.5013 3.84853 21.4818 3.94621 21.444 4.03733C21.4062 4.12844 21.3508 4.21121 21.281 4.28088L4.78097 20.7809C4.64014 20.9217 4.44913 21.0008 4.24997 21.0008C4.05081 21.0008 3.8598 20.9217 3.71897 20.7809C3.57814 20.64 3.49902 20.449 3.49902 20.2499C3.49902 20.0507 3.57814 19.8597 3.71897 19.7189L20.219 3.21888C20.2886 3.14903 20.3714 3.09362 20.4625 3.05581C20.5536 3.018 20.6513 2.99854 20.75 2.99854C20.8486 2.99854 20.9463 3.018 21.0374 3.05581C21.1285 3.09362 21.2113 3.14903 21.281 3.21888V3.21888Z" fill="white"/>
<path fill-rule="evenodd" clip-rule="evenodd" d="M3.71888 3.21888C3.64903 3.28854 3.59362 3.37131 3.55581 3.46243C3.518 3.55354 3.49854 3.65122 3.49854 3.74988C3.49854 3.84853 3.518 3.94621 3.55581 4.03733C3.59362 4.12844 3.64903 4.21121 3.71888 4.28088L20.2189 20.7809C20.3597 20.9217 20.5507 21.0008 20.7499 21.0008C20.949 21.0008 21.14 20.9217 21.2809 20.7809C21.4217 20.64 21.5008 20.449 21.5008 20.2499C21.5008 20.0507 21.4217 19.8597 21.2809 19.7189L4.78088 3.21888C4.71121 3.14903 4.62844 3.09362 4.53733 3.05581C4.44621 3.018 4.34853 2.99854 4.24988 2.99854C4.15122 2.99854 4.05354 3.018 3.96243 3.05581C3.87131 3.09362 3.78854 3.14903 3.71888 3.21888V3.21888Z" fill="white"/>
</svg>
