<svg width="82" height="75" viewBox="0 0 82 75" fill="none" xmlns="http://www.w3.org/2000/svg">
<path d="M51.9933 9.3501C51.2292 10.9289 49.8235 12.1042 48.3511 13.0609C46.7891 14.0721 45.1099 14.8906 43.3504 15.4985C43.1082 15.583 42.8636 15.664 42.6191 15.7401H32.1478C32.08 15.6628 32.0146 15.5818 31.9517 15.4985C31.2942 14.6312 30.9419 13.5332 31.0738 12.4569C31.247 11.046 32.321 9.74872 33.7146 9.44794C35.1083 9.14838 36.6969 9.97822 37.1195 11.3359C37.3532 8.71835 37.622 5.99084 39.0168 3.761C40.2798 1.74254 42.4689 0.297855 44.8397 0.039357C46.2342 -0.105526 47.641 0.151444 48.8936 0.779813C49.0086 0.837794 49.1224 0.89819 49.2338 0.961003C49.9855 1.38619 50.6488 1.95076 51.1881 2.62433C52.6665 4.4918 53.0285 7.20602 51.9933 9.3501Z" fill="#F2F2F2"/>
<path d="M49.2335 0.961036C49.2364 0.992741 49.231 1.02466 49.2179 1.05367C49.2047 1.08268 49.1842 1.10779 49.1584 1.12653C44.416 4.97917 40.6652 9.9067 38.2186 15.4985C38.1822 15.5782 38.1472 15.6592 38.1133 15.7401H37.6313C37.6652 15.6592 37.6992 15.5782 37.7343 15.4985C38.1932 14.4307 38.7005 13.3846 39.2563 12.3603C40.4591 10.1487 41.8743 8.05885 43.482 6.12012C45.0895 4.17903 46.885 2.4008 48.8424 0.811259C48.8579 0.798649 48.875 0.788093 48.8933 0.779853C48.9273 0.76523 48.9642 0.758437 49.0012 0.75998C49.0382 0.761524 49.0744 0.771364 49.1071 0.788769C49.1397 0.806174 49.1681 0.830697 49.19 0.860519C49.2118 0.890342 49.2267 0.924697 49.2335 0.961036Z" fill="white"/>
<path d="M66.0475 46.696C66.2068 46.5924 66.3414 46.4552 66.4419 46.2942C66.5423 46.1331 66.6061 45.952 66.6287 45.7636C66.6514 45.5752 66.6324 45.3842 66.5731 45.204C66.5137 45.0238 66.4155 44.8587 66.2853 44.7204L67.0084 36.1187L64.9373 36.3459L64.3698 44.7179C64.1515 44.9515 64.0267 45.2569 64.0189 45.5762C64.0112 45.8955 64.1212 46.2065 64.328 46.4503C64.5348 46.6941 64.824 46.8538 65.1409 46.8991C65.4579 46.9444 65.7804 46.8721 66.0475 46.696Z" fill="#FFB8B8"/>
<path d="M58.676 67.2127L57.1915 67.2126L56.4854 61.5005L58.6762 61.5006L58.676 67.2127Z" fill="#FFB8B8"/>
<path d="M56.1316 66.7896H58.9945V68.5878H54.3291C54.3291 68.3516 54.3757 68.1178 54.4663 67.8996C54.5569 67.6814 54.6897 67.4832 54.8571 67.3162C55.0244 67.1493 55.2231 67.0168 55.4418 66.9264C55.6605 66.8361 55.8949 66.7896 56.1316 66.7896Z" fill="black"/>
<path d="M69.2097 67.2127L67.7252 67.2126L67.019 61.5005L69.2099 61.5006L69.2097 67.2127Z" fill="#FFB8B8"/>
<path d="M66.6653 66.7896H69.5282V68.5878H64.8628C64.8628 68.1109 65.0527 67.6535 65.3907 67.3162C65.7288 66.979 66.1873 66.7896 66.6653 66.7896Z" fill="black"/>
<path d="M58.7008 63.6749C58.6848 63.6749 58.6686 63.6742 58.6523 63.6729L56.5513 63.5051C56.468 63.4985 56.3869 63.4747 56.3132 63.4353C56.2396 63.3958 56.1749 63.3416 56.1233 63.2759C56.0717 63.2103 56.0342 63.1348 56.0133 63.054C55.9924 62.9732 55.9886 62.889 56.0019 62.8067L59.1874 43.1512L59.4007 40.3789C59.4102 40.2493 59.4615 40.1262 59.547 40.0282C59.6325 39.9302 59.7476 39.8624 59.8749 39.8352L63.0789 39.136C63.1967 39.1098 63.3197 39.1195 63.4319 39.1639C63.5441 39.2082 63.6403 39.2853 63.708 39.3849L64.4892 40.5241C64.796 40.9669 65.1294 41.3908 65.4876 41.7935C66.0419 42.4233 66.9843 43.8216 67.0689 46.1101C67.0916 46.8619 67.1698 47.6109 67.303 48.3512L69.8825 62.2136C69.8956 62.2948 69.8918 62.3779 69.8715 62.4577C69.8512 62.5375 69.8148 62.6123 69.7644 62.6775C69.7141 62.7427 69.6509 62.7969 69.5788 62.8369C69.5067 62.8769 69.4271 62.9017 69.345 62.9099L67.3534 63.0604C67.2109 63.0744 67.068 63.0374 66.9504 62.956C66.8328 62.8745 66.7481 62.754 66.7114 62.6159L63.1786 49.5097C63.1717 49.484 63.1564 49.4614 63.1353 49.4452C63.1141 49.429 63.0882 49.4203 63.0615 49.4203C63.0348 49.4204 63.0089 49.4292 62.9878 49.4454C62.9667 49.4616 62.9515 49.4844 62.9447 49.5101L59.2856 63.2263C59.2512 63.3548 59.1753 63.4684 59.0695 63.5496C58.9638 63.6307 58.8342 63.6747 58.7008 63.6749Z" fill="#FF7943"/>
<path d="M64.2879 30.2285C65.9303 30.2285 67.2618 28.9002 67.2618 27.2617C67.2618 25.6232 65.9303 24.2949 64.2879 24.2949C62.6454 24.2949 61.314 25.6232 61.314 27.2617C61.314 28.9002 62.6454 30.2285 64.2879 30.2285Z" fill="#FFB8B8"/>
<path d="M59.248 40.8252L59.1865 36.5885C58.96 33.8788 60.1629 32.4561 61.2119 31.7404C61.4824 31.5582 61.7872 31.4327 62.1078 31.3715C62.4284 31.3103 62.7581 31.3146 63.077 31.3843L65.4174 31.889C65.7434 31.9599 66.0515 32.0959 66.3232 32.2889C66.5949 32.482 66.8245 32.728 66.9982 33.012C67.1643 33.2801 67.2734 33.5793 67.3186 33.8912C67.3639 34.203 67.3443 34.5209 67.2612 34.8249C67.0986 35.3939 66.738 35.8865 66.2442 36.2142C64.2331 37.6305 64.0914 40.0094 64.0902 40.0334L64.0878 40.0826L59.248 40.8252Z" fill="white"/>
<path d="M66.572 37.6748H64.5136C64.3692 37.6747 64.2307 37.6174 64.1285 37.5155C64.0264 37.4136 63.9689 37.2754 63.9688 37.1313V33.5679C63.9688 33.1514 64.1346 32.752 64.4298 32.4575C64.725 32.163 65.1254 31.9976 65.5428 31.9976C65.9603 31.9976 66.3607 32.163 66.6559 32.4575C66.9511 32.752 67.1169 33.1514 67.1169 33.5679V37.1313C67.1167 37.2754 67.0593 37.4136 66.9571 37.5155C66.855 37.6174 66.7165 37.6747 66.572 37.6748Z" fill="white"/>
<path d="M52.7523 38.3478C52.6311 38.4922 52.4805 38.6093 52.3106 38.6915C52.1407 38.7736 51.9553 38.8189 51.7666 38.8243C51.5778 38.8298 51.3901 38.7953 51.2157 38.7231C51.0413 38.6509 50.8843 38.5426 50.7549 38.4054C49.582 37.1783 51.4993 35.3358 52.6766 36.5655C52.7181 36.6079 52.7566 36.6531 52.7919 36.7008L58.7283 36.5536L59.4369 35.2607L61.6146 36.1043C61.1965 36.7511 60.7164 39.2896 59.623 39.166C59.4796 39.1698 52.8989 38.3582 52.7523 38.3478Z" fill="#FFB8B8"/>
<path d="M60.6937 37.3697L59.0343 36.1547C58.9179 36.0693 58.8402 35.9414 58.8183 35.7989C58.7964 35.6565 58.832 35.5112 58.9174 35.3949L61.0307 32.5221C61.153 32.3558 61.3069 32.2153 61.4837 32.1084C61.6605 32.0014 61.8566 31.9303 62.0609 31.899C62.2652 31.8677 62.4737 31.8769 62.6745 31.926C62.8753 31.9751 63.0644 32.0632 63.231 32.1852C63.3977 32.3072 63.5386 32.4608 63.6457 32.6371C63.7529 32.8134 63.8242 33.0091 63.8556 33.2129C63.8869 33.4168 63.8777 33.6248 63.8285 33.8251C63.7793 34.0253 63.691 34.214 63.5687 34.3802L61.4554 37.253C61.3698 37.3691 61.2415 37.4466 61.0987 37.4685C60.9559 37.4903 60.8103 37.4548 60.6937 37.3697Z" fill="white"/>
<path d="M64.8842 28.8038C64.9802 28.6041 65.0135 28.3801 64.9797 28.1612C64.946 27.9422 64.8469 27.7385 64.6953 27.5767C64.1358 27.014 63.2617 27.3893 62.5056 27.3342C61.2462 27.2424 60.3885 25.7442 60.7644 24.5415C61.1404 23.3389 62.4768 22.5926 63.7371 22.6717C64.9974 22.7509 66.1384 23.5286 66.898 24.535C67.4179 23.7002 68.6952 23.6028 69.5196 24.141C70.3439 24.6791 70.7705 25.6625 70.9467 26.6294C71.123 27.5964 71.0942 28.5901 71.2427 29.5616C71.6025 31.9168 73.1262 34.1345 75.3308 35.05C77.5355 35.9654 80.3567 35.3771 81.799 33.4784C82.0795 35.7793 81.5875 38.1081 80.4 40.1004C79.2125 42.0927 77.3965 43.6361 75.2362 44.4891C74.0415 44.9609 72.7221 45.2113 71.4644 44.9491C69.4339 44.5258 67.8545 42.7934 67.1662 40.8413C66.4779 38.8891 66.5603 36.747 66.8946 34.7046C67.1005 33.4467 67.3285 31.9568 66.4088 31.072C66.1507 30.8577 65.8469 30.7049 65.5206 30.6253C65.3476 30.5734 65.1888 30.4829 65.0562 30.3605C64.9236 30.2381 64.8207 30.0872 64.7555 29.9191C64.6902 29.7511 64.6643 29.5704 64.6796 29.3909C64.6949 29.2113 64.7511 29.0376 64.844 28.883C64.8589 28.8567 64.8723 28.8303 64.8842 28.8038Z" fill="black"/>
<path d="M75.5599 68.6391H47.9531C47.921 68.6391 47.8902 68.6263 47.8675 68.6037C47.8448 68.581 47.832 68.5503 47.832 68.5183C47.832 68.4862 47.8448 68.4555 47.8675 68.4328C47.8902 68.4102 47.921 68.3975 47.9531 68.3975H75.5599C75.592 68.3975 75.6228 68.4102 75.6455 68.4328C75.6682 68.4555 75.681 68.4862 75.681 68.5183C75.681 68.5503 75.6682 68.581 75.6455 68.6037C75.6228 68.6263 75.592 68.6391 75.5599 68.6391Z" fill="#5B2FC3"/>
<path d="M49.433 15.4985H3.30057C2.90321 15.4981 2.51259 15.6009 2.16719 15.7969C2.08446 15.8437 2.0048 15.8958 1.92869 15.9527C1.64051 16.1659 1.40639 16.4434 1.24511 16.7631C1.08384 17.0828 0.99989 17.4357 1 17.7936V41.7107C1.00054 42.3192 1.2431 42.9026 1.67442 43.3329C2.10574 43.7632 2.69059 44.0052 3.30057 44.0057H49.433C50.043 44.0052 50.6278 43.7632 51.0592 43.3329C51.4905 42.9026 51.733 42.3192 51.7336 41.7107V17.7936C51.733 17.1851 51.4905 16.6016 51.0592 16.1714C50.6278 15.7411 50.043 15.4991 49.433 15.4985V15.4985ZM51.4914 41.7107C51.4906 42.255 51.2735 42.7769 50.8877 43.1618C50.5018 43.5468 49.9787 43.7634 49.433 43.7642H3.30057C2.75488 43.7634 2.23177 43.5468 1.84591 43.1618C1.46005 42.7769 1.24294 42.255 1.24217 41.7107V17.7936C1.24388 17.3596 1.38262 16.9372 1.63866 16.5864C1.8947 16.2355 2.25504 15.9741 2.66849 15.8392C2.68546 15.8343 2.70118 15.8283 2.71815 15.8235C2.90729 15.768 3.10343 15.7399 3.30057 15.7401H49.433C49.9787 15.7409 50.5018 15.9575 50.8877 16.3424C51.2735 16.7274 51.4906 17.2492 51.4914 17.7936V41.7107Z" stroke="white" stroke-width="0.679612"/>
<path d="M26.3166 29.7419C26.1329 29.7419 25.9522 29.6954 25.7913 29.6068L1.69062 16.3736C1.66249 16.3581 1.64166 16.3322 1.63272 16.3014C1.62378 16.2706 1.62745 16.2376 1.64294 16.2095C1.65842 16.1814 1.68445 16.1607 1.71529 16.1518C1.74613 16.1428 1.77926 16.1465 1.80739 16.1619L25.9081 29.3952C26.031 29.4629 26.1688 29.499 26.3092 29.5002C26.4496 29.5015 26.5881 29.4678 26.7122 29.4023L51.2096 16.51C51.2236 16.5026 51.239 16.498 51.2549 16.4965C51.2707 16.495 51.2867 16.4967 51.3019 16.5013C51.3171 16.506 51.3313 16.5136 51.3435 16.5238C51.3558 16.5339 51.3659 16.5463 51.3734 16.5604C51.3808 16.5744 51.3854 16.5898 51.3868 16.6056C51.3883 16.6214 51.3866 16.6374 51.3819 16.6525C51.3772 16.6677 51.3695 16.6818 51.3593 16.694C51.3492 16.7062 51.3367 16.7163 51.3226 16.7237L26.8252 29.6159C26.6685 29.6986 26.4939 29.7418 26.3166 29.7419Z" fill="#5B2FC3" stroke="white" stroke-width="0.679612"/>
<path d="M8.69686 37.9659H5.30655C5.04965 37.9659 4.80327 37.8641 4.62161 37.6829C4.43995 37.5016 4.33789 37.2558 4.33789 36.9996C4.33789 36.7433 4.43995 36.4975 4.62161 36.3162C4.80327 36.135 5.04965 36.0332 5.30655 36.0332H8.69686C8.95377 36.0332 9.20015 36.135 9.38181 36.3162C9.56347 36.4975 9.66552 36.7433 9.66552 36.9996C9.66552 37.2558 9.56347 37.5016 9.38181 37.6829C9.20015 37.8641 8.95377 37.9659 8.69686 37.9659Z" fill="white"/>
<path d="M12.6926 41.2276H5.30655C5.04965 41.2276 4.80327 41.1258 4.62161 40.9446C4.43995 40.7634 4.33789 40.5176 4.33789 40.2613C4.33789 40.005 4.43995 39.7592 4.62161 39.578C4.80327 39.3967 5.04965 39.2949 5.30655 39.2949H12.6926C12.9495 39.2949 13.1959 39.3967 13.3775 39.578C13.5592 39.7592 13.6612 40.005 13.6612 40.2613C13.6612 40.5176 13.5592 40.7634 13.3775 40.9446C13.1959 41.1258 12.9495 41.2276 12.6926 41.2276Z" fill="white"/>
<path d="M26.3063 33.6175C28.4462 33.6175 30.1809 31.8869 30.1809 29.7521C30.1809 27.6173 28.4462 25.8867 26.3063 25.8867C24.1664 25.8867 22.4316 27.6173 22.4316 29.7521C22.4316 31.8869 24.1664 33.6175 26.3063 33.6175Z" fill="white"/>
</svg>
