<svg width="17" height="17" viewBox="0 0 17 17" fill="none" xmlns="http://www.w3.org/2000/svg">
<g clip-path="url(#clip0_459_3884)">
<path d="M15.5 7.25016C15.5 7.44908 15.421 7.63984 15.2803 7.78049C15.1397 7.92115 14.9489 8.00016 14.75 8.00016H8.5C8.36739 8.00016 8.24021 8.05284 8.14645 8.14661C8.05268 8.24038 8 8.36756 8 8.50016C8 8.63277 8.05268 8.75995 8.14645 8.85372C8.24021 8.94749 8.36739 9.00016 8.5 9.00016H11.033L11.037 9.08616C11.049 9.40316 11.045 9.72316 11.01 9.90216C10.983 10.0362 10.914 10.1962 10.828 10.3502C10.786 10.4272 10.681 10.5002 10.514 10.5002H8.5C8.36739 10.5002 8.24021 10.5528 8.14645 10.6466C8.05268 10.7404 8 10.8676 8 11.0002C8 11.1328 8.05268 11.2599 8.14645 11.3537C8.24021 11.4475 8.36739 11.5002 8.5 11.5002H10.065L10.075 11.6062C10.099 11.9222 10.085 12.1902 10.035 12.3142C9.989 12.4322 9.828 12.6142 9.605 12.8002C9.509 12.8812 9.415 12.9502 9.346 13.0002H8C7.86739 13.0002 7.74021 13.0528 7.64645 13.1466C7.55268 13.2404 7.5 13.3676 7.5 13.5002C7.5 13.6328 7.55268 13.7599 7.64645 13.8537C7.74021 13.9475 7.86739 14.0002 8 14.0002H9V14.3422C9 14.4819 8.97071 14.6201 8.91401 14.7479C8.85731 14.8756 8.77447 14.99 8.67083 15.0838C8.56718 15.1775 8.44503 15.2485 8.31227 15.2922C8.1795 15.3358 8.03906 15.3511 7.9 15.3372L5.185 15.0662C4.83609 15.0312 4.49845 14.9232 4.194 14.7492L1.752 13.3542C1.67547 13.3104 1.61186 13.2473 1.56761 13.1711C1.52335 13.0949 1.50003 13.0083 1.5 12.9202V6.61816C1.5 6.52539 1.52582 6.43444 1.57456 6.35549C1.62331 6.27655 1.69305 6.21273 1.776 6.17116L4.241 4.93916L8.426 2.42716C8.5342 2.36263 8.66225 2.33982 8.78608 2.36303C8.90992 2.38624 9.02101 2.45387 9.0985 2.55322C9.17598 2.65256 9.21452 2.77678 9.20688 2.90254C9.19924 3.02829 9.14594 3.14693 9.057 3.23616L6.647 5.64616C6.57695 5.71603 6.52921 5.80511 6.50981 5.90213C6.49041 5.99914 6.50023 6.09973 6.53802 6.19116C6.57582 6.2826 6.63989 6.36076 6.72212 6.41577C6.80436 6.47077 6.90106 6.50014 7 6.50016L14.75 6.50016C14.9489 6.50016 15.1397 6.57918 15.2803 6.71983C15.421 6.86049 15.5 7.05125 15.5 7.25016ZM12.034 9.00016H14.75C15.2141 9.00016 15.6592 8.81579 15.9874 8.4876C16.3156 8.15941 16.5 7.71429 16.5 7.25016C16.5 6.78603 16.3156 6.34092 15.9874 6.01273C15.6592 5.68454 15.2141 5.50016 14.75 5.50016L8.207 5.50016L9.764 3.94316C10.0245 3.6812 10.1805 3.33316 10.2026 2.96436C10.2248 2.59557 10.1116 2.23137 9.88426 1.94011C9.65695 1.64886 9.33116 1.45057 8.96804 1.38245C8.60491 1.31434 8.22941 1.38108 7.912 1.57016L3.759 4.06116L1.329 5.27616C1.07982 5.40079 0.870275 5.59236 0.723853 5.82939C0.577431 6.06643 0.499916 6.33955 0.5 6.61816V12.9202C0.500085 13.1846 0.570054 13.4442 0.702817 13.6729C0.83558 13.9015 1.02642 14.091 1.256 14.2222L3.697 15.6172C4.12369 15.861 4.59696 16.0123 5.086 16.0612L7.801 16.3322C8.07903 16.36 8.35981 16.3292 8.62522 16.2418C8.89064 16.1545 9.13481 16.0125 9.34199 15.825C9.54917 15.6375 9.71476 15.4087 9.82809 15.1533C9.94143 14.8979 9.99999 14.6216 10 14.3422V13.7612C10.0847 13.6987 10.1674 13.6337 10.248 13.5662C10.477 13.3752 10.816 13.0562 10.964 12.6862C11.11 12.3222 11.096 11.8402 11.072 11.5282L11.06 11.3962C11.3325 11.2897 11.5595 11.0917 11.702 10.8362C11.8347 10.6061 11.9318 10.3573 11.99 10.0982C12.052 9.78816 12.048 9.35916 12.036 9.04816L12.034 9.00016Z" fill="white"/>
</g>
<defs>
<clipPath id="clip0_459_3884">
<rect width="16" height="16" fill="white" transform="translate(16.5 0.5) rotate(90)"/>
</clipPath>
</defs>
</svg>
