<svg width="24" height="24" viewBox="0 0 24 24" fill="none" xmlns="http://www.w3.org/2000/svg">
<path d="M8.09293 6.96924L11.3449 10.3364L18.5939 2.83407V4.17041H19.0659V2H16.9659V2.48775H18.2599L11.3449 9.64923L8.09293 6.27774L4.08691 10.4264L4.41693 10.7716L8.09293 6.96924Z" fill="#FF6421"/>
<mask id="path-2-inside-1_475_3354" fill="white">
<path d="M21.346 6.7168H18.272V21.516H17.441V8.74149H14.367V21.516H13.536V13.4441H10.458V21.5119H9.62701V11.4246H6.55301V21.5119H5.72202V16.8052H2.64801V21.5119H2V21.9997H22V21.5119H21.349L21.346 6.7168ZM5.254 21.516H3.12003V17.2961H5.254V21.516ZM9.15402 21.516H7.02002V11.9165H9.15402V21.516ZM13.054 21.516H10.93V13.9309H13.064L13.054 21.516ZM16.954 21.516H14.82V9.22419H16.954V21.516ZM20.863 21.516H18.729V7.20871H20.863V21.516Z"/>
</mask>
<path d="M21.346 6.7168H18.272V21.516H17.441V8.74149H14.367V21.516H13.536V13.4441H10.458V21.5119H9.62701V11.4246H6.55301V21.5119H5.72202V16.8052H2.64801V21.5119H2V21.9997H22V21.5119H21.349L21.346 6.7168ZM5.254 21.516H3.12003V17.2961H5.254V21.516ZM9.15402 21.516H7.02002V11.9165H9.15402V21.516ZM13.054 21.516H10.93V13.9309H13.064L13.054 21.516ZM16.954 21.516H14.82V9.22419H16.954V21.516ZM20.863 21.516H18.729V7.20871H20.863V21.516Z" fill="#FF6421"/>
<path d="M21.346 6.7168L22.546 6.71655L22.5458 5.5168H21.346V6.7168ZM18.272 6.7168V5.5168H17.072V6.7168H18.272ZM18.272 21.516V22.716H19.472V21.516H18.272ZM17.441 21.516H16.241V22.716H17.441V21.516ZM17.441 8.74149H18.641V7.54149H17.441V8.74149ZM14.367 8.74149V7.54149H13.167V8.74149H14.367ZM14.367 21.516V22.716H15.567V21.516H14.367ZM13.536 21.516H12.336V22.716H13.536V21.516ZM13.536 13.4441H14.736V12.2441H13.536V13.4441ZM10.458 13.4441V12.2441H9.25801V13.4441H10.458ZM10.458 21.5119V22.7119H11.658V21.5119H10.458ZM9.62701 21.5119H8.42701V22.7119H9.62701V21.5119ZM9.62701 11.4246H10.827V10.2246H9.62701V11.4246ZM6.55301 11.4246V10.2246H5.35301V11.4246H6.55301ZM6.55301 21.5119V22.7119H7.75301V21.5119H6.55301ZM5.72202 21.5119H4.52202V22.7119H5.72202V21.5119ZM5.72202 16.8052H6.92202V15.6052H5.72202V16.8052ZM2.64801 16.8052V15.6052H1.44801V16.8052H2.64801ZM2.64801 21.5119V22.7119H3.84801V21.5119H2.64801ZM2 21.5119V20.3119H0.8V21.5119H2ZM2 21.9997H0.8V23.1997H2V21.9997ZM22 21.9997V23.1997H23.2V21.9997H22ZM22 21.5119H23.2V20.3119H22V21.5119ZM21.349 21.5119L20.149 21.5121L20.1492 22.7119H21.349V21.5119ZM5.254 21.516V22.716H6.454V21.516H5.254ZM3.12003 21.516H1.92003V22.716H3.12003V21.516ZM3.12003 17.2961V16.0961H1.92003V17.2961H3.12003ZM5.254 17.2961H6.454V16.0961H5.254V17.2961ZM9.15402 21.516V22.716H10.354V21.516H9.15402ZM7.02002 21.516H5.82002V22.716H7.02002V21.516ZM7.02002 11.9165V10.7165H5.82002V11.9165H7.02002ZM9.15402 11.9165H10.354V10.7165H9.15402V11.9165ZM13.054 21.516V22.716H14.2524L14.254 21.5176L13.054 21.516ZM10.93 21.516H9.73002V22.716H10.93V21.516ZM10.93 13.9309V12.7309H9.73002V13.9309H10.93ZM13.064 13.9309L14.264 13.9325L14.2656 12.7309H13.064V13.9309ZM16.954 21.516V22.716H18.154V21.516H16.954ZM14.82 21.516H13.62V22.716H14.82V21.516ZM14.82 9.22419V8.02419H13.62V9.22419H14.82ZM16.954 9.22419H18.154V8.02419H16.954V9.22419ZM20.863 21.516V22.716H22.063V21.516H20.863ZM18.729 21.516H17.529V22.716H18.729V21.516ZM18.729 7.20871V6.00871H17.529V7.20871H18.729ZM20.863 7.20871H22.063V6.00871H20.863V7.20871ZM21.346 5.5168H18.272V7.9168H21.346V5.5168ZM17.072 6.7168V21.516H19.472V6.7168H17.072ZM18.272 20.316H17.441V22.716H18.272V20.316ZM18.641 21.516V8.74149H16.241V21.516H18.641ZM17.441 7.54149H14.367V9.94149H17.441V7.54149ZM13.167 8.74149V21.516H15.567V8.74149H13.167ZM14.367 20.316H13.536V22.716H14.367V20.316ZM14.736 21.516V13.4441H12.336V21.516H14.736ZM13.536 12.2441H10.458V14.6441H13.536V12.2441ZM9.25801 13.4441V21.5119H11.658V13.4441H9.25801ZM10.458 20.3119H9.62701V22.7119H10.458V20.3119ZM10.827 21.5119V11.4246H8.42701V21.5119H10.827ZM9.62701 10.2246H6.55301V12.6246H9.62701V10.2246ZM5.35301 11.4246V21.5119H7.75301V11.4246H5.35301ZM6.55301 20.3119H5.72202V22.7119H6.55301V20.3119ZM6.92202 21.5119V16.8052H4.52202V21.5119H6.92202ZM5.72202 15.6052H2.64801V18.0052H5.72202V15.6052ZM1.44801 16.8052V21.5119H3.84801V16.8052H1.44801ZM2.64801 20.3119H2V22.7119H2.64801V20.3119ZM0.8 21.5119V21.9997H3.2V21.5119H0.8ZM2 23.1997H22V20.7997H2V23.1997ZM23.2 21.9997V21.5119H20.8V21.9997H23.2ZM22 20.3119H21.349V22.7119H22V20.3119ZM22.549 21.5116L22.546 6.71655L20.146 6.71704L20.149 21.5121L22.549 21.5116ZM5.254 20.316H3.12003V22.716H5.254V20.316ZM4.32003 21.516V17.2961H1.92003V21.516H4.32003ZM3.12003 18.4961H5.254V16.0961H3.12003V18.4961ZM4.054 17.2961V21.516H6.454V17.2961H4.054ZM9.15402 20.316H7.02002V22.716H9.15402V20.316ZM8.22002 21.516V11.9165H5.82002V21.516H8.22002ZM7.02002 13.1165H9.15402V10.7165H7.02002V13.1165ZM7.95402 11.9165V21.516H10.354V11.9165H7.95402ZM13.054 20.316H10.93V22.716H13.054V20.316ZM12.13 21.516V13.9309H9.73002V21.516H12.13ZM10.93 15.1309H13.064V12.7309H10.93V15.1309ZM11.864 13.9293L11.854 21.5144L14.254 21.5176L14.264 13.9325L11.864 13.9293ZM16.954 20.316H14.82V22.716H16.954V20.316ZM16.02 21.516V9.22419H13.62V21.516H16.02ZM14.82 10.4242H16.954V8.02419H14.82V10.4242ZM15.754 9.22419V21.516H18.154V9.22419H15.754ZM20.863 20.316H18.729V22.716H20.863V20.316ZM19.929 21.516V7.20871H17.529V21.516H19.929ZM18.729 8.40871H20.863V6.00871H18.729V8.40871ZM19.663 7.20871V21.516H22.063V7.20871H19.663Z" fill="#FF6421" mask="url(#path-2-inside-1_475_3354)"/>
</svg>
