<svg width="24" height="24" viewBox="0 0 24 24" fill="none" xmlns="http://www.w3.org/2000/svg">
<mask id="path-1-inside-1_475_3358" fill="white">
<path d="M20.9353 10.968C20.8913 10.8864 20.8261 10.8184 20.7465 10.7709C20.667 10.7234 20.5761 10.6983 20.4835 10.6982H19.1151C18.938 8.99387 18.1925 7.39872 16.9985 6.16967C17.0513 6.11531 17.0914 6.04994 17.1159 5.97823C17.1405 5.90652 17.1488 5.83026 17.1403 5.75495C17.1318 5.67964 17.1068 5.60716 17.0669 5.54269C17.0271 5.47822 16.9735 5.42338 16.9099 5.38211L11.8518 2.08315C11.7742 2.03267 11.6843 2.00409 11.5917 2.00041C11.4992 1.99672 11.4073 2.01806 11.3259 2.06221C11.2445 2.10636 11.1764 2.17167 11.129 2.25124C11.0816 2.33081 11.0565 2.42173 11.0564 2.51436V3.85223C9.11199 3.96875 7.28421 4.81881 5.94222 6.23072C5.88505 6.21599 5.82583 6.21099 5.76701 6.21594C5.68944 6.22256 5.61441 6.24686 5.54769 6.28696C5.48097 6.32706 5.42428 6.38192 5.38204 6.4473L2.08321 11.5055C2.03273 11.5832 2.00409 11.673 2.00041 11.7656C1.99672 11.8581 2.01809 11.95 2.06224 12.0314C2.10638 12.1129 2.17169 12.1809 2.25127 12.2283C2.33084 12.2758 2.42175 12.3008 2.51438 12.3009H3.88175C4.05888 14.0053 4.80444 15.6004 5.99834 16.8295C5.9457 16.8839 5.9057 16.9493 5.88129 17.021C5.85687 17.0927 5.84861 17.1689 5.85707 17.2441C5.86554 17.3194 5.89053 17.3918 5.93026 17.4563C5.96999 17.5208 6.02348 17.5757 6.0869 17.6171L11.145 20.916C11.2226 20.9668 11.3125 20.9957 11.4052 20.9996C11.4979 21.0034 11.5899 20.9821 11.6715 20.9379C11.753 20.8937 11.8211 20.8282 11.8684 20.7485C11.9158 20.6687 11.9407 20.5776 11.9405 20.4848V19.1479C13.8867 19.0322 15.7163 18.1817 17.0595 16.7685C17.1013 16.7798 17.1443 16.7857 17.1875 16.7862H17.2338C17.3113 16.7795 17.3863 16.7551 17.453 16.715C17.5197 16.675 17.5764 16.6202 17.6187 16.5548L20.9176 11.4966C20.9682 11.4184 20.9966 11.3279 20.9997 11.2347C21.0028 11.1416 20.9805 11.0494 20.9353 10.968V10.968ZM11.3242 4.37205L11.5801 4.36613V2.53798L16.6116 5.81921L13.9477 7.55678L13.5933 7.78815L11.5801 9.10141V6.7259L11.3075 6.73674C10.5978 6.76472 9.9033 6.9509 9.27481 7.28167C8.64633 7.61244 8.09972 8.07944 7.67485 8.64856L6.33007 6.5861C7.63667 5.21599 9.4326 4.41892 11.3252 4.3691L11.3242 4.37205ZM13.4535 11.4976L15.0129 13.8889C14.666 14.4013 14.2112 14.8317 13.6805 15.1498C13.1497 15.468 12.5559 15.6663 11.9405 15.7308V13.8918C11.9404 13.7992 11.9152 13.7083 11.8678 13.6287C11.8204 13.5492 11.7524 13.4838 11.6709 13.4397C11.5895 13.3956 11.4977 13.3742 11.4051 13.3779C11.3125 13.3816 11.2227 13.4102 11.145 13.4606L8.94182 14.898L8.90931 14.8733L8.90048 14.8665L8.82465 14.8064L8.80891 14.7936L8.74101 14.7365L8.7213 14.7198L8.65533 14.6607L8.63664 14.644L8.56971 14.582L8.55889 14.5711C8.42751 14.4451 8.3042 14.311 8.18972 14.1695L8.12868 14.0917L8.11978 14.0799L8.06072 14.0011L8.05285 13.9893L7.99084 13.9017C7.86544 13.7183 7.75454 13.5254 7.65911 13.3248C7.64336 13.2913 7.62757 13.2578 7.61182 13.2263C7.48249 12.9339 7.38674 12.6277 7.32635 12.3137H9.1121C9.20474 12.3136 9.29564 12.2886 9.37522 12.2411C9.45479 12.1937 9.5201 12.1257 9.56425 12.0442C9.60839 11.9628 9.62976 11.8709 9.62607 11.7784C9.62239 11.6858 9.59382 11.596 9.54334 11.5183L7.98393 9.12701C8.33086 8.6146 8.78566 8.18426 9.31639 7.86608C9.84713 7.5479 10.441 7.34959 11.0564 7.28507V9.12406C11.0562 9.21683 11.081 9.30792 11.1284 9.3877C11.1758 9.46747 11.2438 9.53294 11.3254 9.57715C11.4069 9.62136 11.4989 9.64265 11.5916 9.6388C11.6843 9.63495 11.7742 9.60608 11.8518 9.55525L14.055 8.11893L14.0816 8.1386L14.0964 8.14945L14.1751 8.21146L14.1879 8.22131L14.2548 8.27744L14.2755 8.29513L14.3405 8.35224L14.3602 8.36997L14.4291 8.43396L14.438 8.44283C14.5694 8.56878 14.6927 8.70293 14.8072 8.84448L14.8692 8.92322L14.878 8.93407L14.9381 9.01479L14.945 9.02462L15.007 9.11226C15.1543 9.32753 15.2815 9.5559 15.387 9.79448V9.79448C15.516 10.0863 15.6114 10.3918 15.6715 10.7051H13.8857C13.793 10.7052 13.7022 10.7303 13.6226 10.7777C13.543 10.8252 13.4777 10.8932 13.4336 10.9746C13.3894 11.0561 13.3681 11.1479 13.3718 11.2405C13.3754 11.333 13.404 11.4229 13.4545 11.5006L13.4535 11.4976ZM4.38287 12.0273L4.36514 11.7841H2.53211L5.81327 6.75249L7.67485 9.60743L9.0954 11.7851H6.72585L6.76124 12.0804C6.81741 12.5493 6.94318 13.0072 7.13438 13.439C7.15111 13.4774 7.16881 13.5148 7.18653 13.5522C7.29457 13.7796 7.42033 13.9982 7.56261 14.2059L7.62756 14.2984L7.63742 14.3112L7.70339 14.3998L7.71421 14.4136L7.78216 14.5002L7.78901 14.5091C7.91548 14.6651 8.0516 14.8131 8.19657 14.9521L8.20937 14.9639L8.28322 15.0328L8.30485 15.0535L8.37869 15.1185L8.40333 15.1392L8.47615 15.2002L8.30094 15.3144L6.43047 16.5322C5.22995 15.3231 4.50366 13.723 4.38383 12.0233L4.38287 12.0273ZM11.6677 18.637L11.4118 18.6429V20.471L6.3803 17.1898L9.0954 15.4178L11.4118 13.9066V16.2821L11.6845 16.2713C12.3942 16.2433 13.0886 16.0571 13.7171 15.7264C14.3456 15.3956 14.8922 14.9286 15.3171 14.3595L16.6618 16.4219C15.3558 17.7888 13.5625 18.5839 11.6727 18.634L11.6677 18.637ZM17.1807 16.2575L15.319 13.4026L13.8995 11.2249H16.2681L16.2336 10.9296C16.1775 10.4604 16.0517 10.0022 15.8605 9.57003V9.57003C15.7418 9.30282 15.5988 9.0471 15.4332 8.80608C15.4116 8.77458 15.3889 8.74209 15.3643 8.70763L15.3574 8.69877L15.2886 8.60623L15.2806 8.59638L15.2058 8.49796C15.0794 8.34161 14.9432 8.1933 14.7983 8.05394L14.7855 8.04213L14.7087 7.97027L14.689 7.95255L14.6142 7.8866L14.5916 7.86689L14.5167 7.80389L16.5594 6.47092C17.7612 7.67818 18.4896 9.27681 18.612 10.9759L18.6297 11.219H20.4637L17.1807 16.2575Z"/>
</mask>
<path d="M20.9353 10.968C20.8913 10.8864 20.8261 10.8184 20.7465 10.7709C20.667 10.7234 20.5761 10.6983 20.4835 10.6982H19.1151C18.938 8.99387 18.1925 7.39872 16.9985 6.16967C17.0513 6.11531 17.0914 6.04994 17.1159 5.97823C17.1405 5.90652 17.1488 5.83026 17.1403 5.75495C17.1318 5.67964 17.1068 5.60716 17.0669 5.54269C17.0271 5.47822 16.9735 5.42338 16.9099 5.38211L11.8518 2.08315C11.7742 2.03267 11.6843 2.00409 11.5917 2.00041C11.4992 1.99672 11.4073 2.01806 11.3259 2.06221C11.2445 2.10636 11.1764 2.17167 11.129 2.25124C11.0816 2.33081 11.0565 2.42173 11.0564 2.51436V3.85223C9.11199 3.96875 7.28421 4.81881 5.94222 6.23072C5.88505 6.21599 5.82583 6.21099 5.76701 6.21594C5.68944 6.22256 5.61441 6.24686 5.54769 6.28696C5.48097 6.32706 5.42428 6.38192 5.38204 6.4473L2.08321 11.5055C2.03273 11.5832 2.00409 11.673 2.00041 11.7656C1.99672 11.8581 2.01809 11.95 2.06224 12.0314C2.10638 12.1129 2.17169 12.1809 2.25127 12.2283C2.33084 12.2758 2.42175 12.3008 2.51438 12.3009H3.88175C4.05888 14.0053 4.80444 15.6004 5.99834 16.8295C5.9457 16.8839 5.9057 16.9493 5.88129 17.021C5.85687 17.0927 5.84861 17.1689 5.85707 17.2441C5.86554 17.3194 5.89053 17.3918 5.93026 17.4563C5.96999 17.5208 6.02348 17.5757 6.0869 17.6171L11.145 20.916C11.2226 20.9668 11.3125 20.9957 11.4052 20.9996C11.4979 21.0034 11.5899 20.9821 11.6715 20.9379C11.753 20.8937 11.8211 20.8282 11.8684 20.7485C11.9158 20.6687 11.9407 20.5776 11.9405 20.4848V19.1479C13.8867 19.0322 15.7163 18.1817 17.0595 16.7685C17.1013 16.7798 17.1443 16.7857 17.1875 16.7862H17.2338C17.3113 16.7795 17.3863 16.7551 17.453 16.715C17.5197 16.675 17.5764 16.6202 17.6187 16.5548L20.9176 11.4966C20.9682 11.4184 20.9966 11.3279 20.9997 11.2347C21.0028 11.1416 20.9805 11.0494 20.9353 10.968V10.968ZM11.3242 4.37205L11.5801 4.36613V2.53798L16.6116 5.81921L13.9477 7.55678L13.5933 7.78815L11.5801 9.10141V6.7259L11.3075 6.73674C10.5978 6.76472 9.9033 6.9509 9.27481 7.28167C8.64633 7.61244 8.09972 8.07944 7.67485 8.64856L6.33007 6.5861C7.63667 5.21599 9.4326 4.41892 11.3252 4.3691L11.3242 4.37205ZM13.4535 11.4976L15.0129 13.8889C14.666 14.4013 14.2112 14.8317 13.6805 15.1498C13.1497 15.468 12.5559 15.6663 11.9405 15.7308V13.8918C11.9404 13.7992 11.9152 13.7083 11.8678 13.6287C11.8204 13.5492 11.7524 13.4838 11.6709 13.4397C11.5895 13.3956 11.4977 13.3742 11.4051 13.3779C11.3125 13.3816 11.2227 13.4102 11.145 13.4606L8.94182 14.898L8.90931 14.8733L8.90048 14.8665L8.82465 14.8064L8.80891 14.7936L8.74101 14.7365L8.7213 14.7198L8.65533 14.6607L8.63664 14.644L8.56971 14.582L8.55889 14.5711C8.42751 14.4451 8.3042 14.311 8.18972 14.1695L8.12868 14.0917L8.11978 14.0799L8.06072 14.0011L8.05285 13.9893L7.99084 13.9017C7.86544 13.7183 7.75454 13.5254 7.65911 13.3248C7.64336 13.2913 7.62757 13.2578 7.61182 13.2263C7.48249 12.9339 7.38674 12.6277 7.32635 12.3137H9.1121C9.20474 12.3136 9.29564 12.2886 9.37522 12.2411C9.45479 12.1937 9.5201 12.1257 9.56425 12.0442C9.60839 11.9628 9.62976 11.8709 9.62607 11.7784C9.62239 11.6858 9.59382 11.596 9.54334 11.5183L7.98393 9.12701C8.33086 8.6146 8.78566 8.18426 9.31639 7.86608C9.84713 7.5479 10.441 7.34959 11.0564 7.28507V9.12406C11.0562 9.21683 11.081 9.30792 11.1284 9.3877C11.1758 9.46747 11.2438 9.53294 11.3254 9.57715C11.4069 9.62136 11.4989 9.64265 11.5916 9.6388C11.6843 9.63495 11.7742 9.60608 11.8518 9.55525L14.055 8.11893L14.0816 8.1386L14.0964 8.14945L14.1751 8.21146L14.1879 8.22131L14.2548 8.27744L14.2755 8.29513L14.3405 8.35224L14.3602 8.36997L14.4291 8.43396L14.438 8.44283C14.5694 8.56878 14.6927 8.70293 14.8072 8.84448L14.8692 8.92322L14.878 8.93407L14.9381 9.01479L14.945 9.02462L15.007 9.11226C15.1543 9.32753 15.2815 9.5559 15.387 9.79448V9.79448C15.516 10.0863 15.6114 10.3918 15.6715 10.7051H13.8857C13.793 10.7052 13.7022 10.7303 13.6226 10.7777C13.543 10.8252 13.4777 10.8932 13.4336 10.9746C13.3894 11.0561 13.3681 11.1479 13.3718 11.2405C13.3754 11.333 13.404 11.4229 13.4545 11.5006L13.4535 11.4976ZM4.38287 12.0273L4.36514 11.7841H2.53211L5.81327 6.75249L7.67485 9.60743L9.0954 11.7851H6.72585L6.76124 12.0804C6.81741 12.5493 6.94318 13.0072 7.13438 13.439C7.15111 13.4774 7.16881 13.5148 7.18653 13.5522C7.29457 13.7796 7.42033 13.9982 7.56261 14.2059L7.62756 14.2984L7.63742 14.3112L7.70339 14.3998L7.71421 14.4136L7.78216 14.5002L7.78901 14.5091C7.91548 14.6651 8.0516 14.8131 8.19657 14.9521L8.20937 14.9639L8.28322 15.0328L8.30485 15.0535L8.37869 15.1185L8.40333 15.1392L8.47615 15.2002L8.30094 15.3144L6.43047 16.5322C5.22995 15.3231 4.50366 13.723 4.38383 12.0233L4.38287 12.0273ZM11.6677 18.637L11.4118 18.6429V20.471L6.3803 17.1898L9.0954 15.4178L11.4118 13.9066V16.2821L11.6845 16.2713C12.3942 16.2433 13.0886 16.0571 13.7171 15.7264C14.3456 15.3956 14.8922 14.9286 15.3171 14.3595L16.6618 16.4219C15.3558 17.7888 13.5625 18.5839 11.6727 18.634L11.6677 18.637ZM17.1807 16.2575L15.319 13.4026L13.8995 11.2249H16.2681L16.2336 10.9296C16.1775 10.4604 16.0517 10.0022 15.8605 9.57003V9.57003C15.7418 9.30282 15.5988 9.0471 15.4332 8.80608C15.4116 8.77458 15.3889 8.74209 15.3643 8.70763L15.3574 8.69877L15.2886 8.60623L15.2806 8.59638L15.2058 8.49796C15.0794 8.34161 14.9432 8.1933 14.7983 8.05394L14.7855 8.04213L14.7087 7.97027L14.689 7.95255L14.6142 7.8866L14.5916 7.86689L14.5167 7.80389L16.5594 6.47092C17.7612 7.67818 18.4896 9.27681 18.612 10.9759L18.6297 11.219H20.4637L17.1807 16.2575Z" fill="#FF6421" stroke="#FF6421" stroke-width="4" mask="url(#path-1-inside-1_475_3358)"/>
</svg>
