<svg width="24" height="24" viewBox="0 0 24 24" fill="none" xmlns="http://www.w3.org/2000/svg">
<path d="M22.6801 19.5971H22.1462V7.48912C22.145 6.89369 21.9223 6.32309 21.5269 5.90243C21.1315 5.48177 20.5958 5.24539 20.0371 5.24513H17.6344C17.5906 5.24261 17.5468 5.24963 17.5057 5.26575C17.4645 5.28188 17.4269 5.30677 17.395 5.33891C17.3632 5.37105 17.3378 5.40978 17.3205 5.45271C17.3032 5.49564 17.2943 5.54189 17.2943 5.58863C17.2943 5.63536 17.3032 5.68161 17.3205 5.72454C17.3378 5.76748 17.3632 5.80619 17.395 5.83834C17.4269 5.87048 17.4645 5.89538 17.5057 5.9115C17.5468 5.92763 17.5906 5.93464 17.6344 5.93213H20.0362C20.4238 5.93239 20.7955 6.09642 21.0699 6.38827C21.3442 6.68012 21.4988 7.07599 21.4998 7.48912V19.5961H14.285C14.1767 19.5959 14.0699 19.624 13.9741 19.6779C13.8783 19.7317 13.7963 19.8097 13.7352 19.9051L13.6414 20.0561C13.5972 20.1254 13.5377 20.1822 13.4682 20.2214C13.3987 20.2606 13.3213 20.2811 13.2427 20.2811H10.7208C10.6421 20.2811 10.5647 20.2606 10.4952 20.2214C10.4257 20.1822 10.3662 20.1254 10.322 20.0561L10.2282 19.9051C10.1671 19.8097 10.0851 19.7317 9.9893 19.6779C9.89347 19.624 9.78674 19.5959 9.67841 19.5961H2.50113V7.48912C2.50212 7.07599 2.65673 6.68012 2.93108 6.38827C3.20542 6.09642 3.57712 5.93239 3.96473 5.93213H6.04474C6.08852 5.93464 6.13233 5.92763 6.17348 5.9115C6.21464 5.89538 6.25228 5.87048 6.28411 5.83834C6.31594 5.80619 6.34129 5.76748 6.35861 5.72454C6.37594 5.68161 6.38487 5.63536 6.38487 5.58863C6.38487 5.54189 6.37594 5.49564 6.35861 5.45271C6.34129 5.40978 6.31594 5.37105 6.28411 5.33891C6.25228 5.30677 6.21464 5.28188 6.17348 5.26575C6.13233 5.24963 6.08852 5.24261 6.04474 5.24513H3.96661C3.40797 5.24539 2.87223 5.48177 2.47686 5.90243C2.08149 6.32309 1.85876 6.89369 1.85752 7.48912V19.5961H1.32274C1.23715 19.5961 1.15506 19.6324 1.09453 19.6969C1.034 19.7614 1 19.8489 1 19.9401V20.6551C1.00099 21.2774 1.23362 21.8739 1.64682 22.3135C2.06001 22.7532 2.62 23.0001 3.20385 23.0001H20.7962C21.38 23.0001 21.94 22.7532 22.3532 22.3135C22.7664 21.8739 22.999 21.2774 23 20.6551V19.9401C22.9998 19.8496 22.966 19.7628 22.9061 19.6986C22.8462 19.6344 22.765 19.5979 22.6801 19.5971V19.5971ZM20.8037 22.3141H3.20385C2.79103 22.3141 2.39508 22.1395 2.10291 21.8287C1.81074 21.5178 1.64623 21.0961 1.64549 20.6561V20.2841H9.67559C9.67873 20.2842 9.68182 20.285 9.68459 20.2866C9.68737 20.2881 9.68975 20.2904 9.69154 20.2931L9.78536 20.4441C9.88878 20.6061 10.0278 20.7387 10.1904 20.8302C10.353 20.9217 10.5341 20.9694 10.7179 20.9691H13.237C13.4209 20.9694 13.602 20.9217 13.7646 20.8302C13.9271 20.7387 14.0662 20.6061 14.1696 20.4441L14.2634 20.2931C14.2652 20.2903 14.2675 20.288 14.2703 20.2864C14.2731 20.2849 14.2762 20.2841 14.2794 20.2841H22.3479V20.6561C22.347 21.0947 22.1832 21.5151 21.8925 21.8256C21.6018 22.136 21.2077 22.3113 20.7962 22.3131L20.8037 22.3141Z" fill="#FF6421"/>
<path d="M3.89357 16.8798V7.4198C3.89345 7.40763 3.89559 7.39555 3.89987 7.38428C3.90415 7.373 3.91049 7.36274 3.91852 7.3541C3.92655 7.34545 3.93611 7.33858 3.94664 7.33389C3.95717 7.32921 3.96847 7.3268 3.97989 7.3268H6.0552C6.14142 7.3268 6.22411 7.29029 6.28507 7.22531C6.34604 7.16033 6.38029 7.0722 6.38029 6.9803C6.38029 6.8884 6.34604 6.80026 6.28507 6.73528C6.22411 6.67029 6.14142 6.63379 6.0552 6.63379H3.97989C3.78538 6.63485 3.59921 6.71809 3.4622 6.86525C3.32519 7.01241 3.24853 7.21147 3.24903 7.41879V18.4938C3.24878 18.5851 3.28251 18.6728 3.34283 18.7377C3.40316 18.8025 3.48515 18.8393 3.57083 18.8398H20.4313C20.517 18.8393 20.599 18.8025 20.6593 18.7377C20.7197 18.6728 20.7534 18.5851 20.7531 18.4938V7.4238C20.7536 7.21648 20.677 7.01741 20.54 6.87025C20.403 6.7231 20.2168 6.63985 20.0223 6.63879H17.6252C17.5389 6.63879 17.4563 6.6753 17.3953 6.74028C17.3343 6.80526 17.3001 6.89339 17.3001 6.98529C17.3001 7.07719 17.3343 7.16532 17.3953 7.2303C17.4563 7.29528 17.5389 7.33179 17.6252 7.33179H20.0232C20.0346 7.33179 20.0459 7.33421 20.0565 7.3389C20.067 7.34358 20.0766 7.35045 20.0846 7.3591C20.0926 7.36775 20.0989 7.378 20.1032 7.38928C20.1075 7.40056 20.1097 7.41262 20.1095 7.42479V18.1538H15.4354V16.7398C15.4366 16.3704 15.3694 16.0045 15.2377 15.6628C15.106 15.3212 14.9124 15.0106 14.6679 14.7488L14.2486 14.2978C14.4004 14.0449 14.514 13.7682 14.5854 13.4778C14.5987 13.4334 14.6034 13.3866 14.5992 13.3403C14.595 13.2939 14.5821 13.2489 14.5611 13.208C14.5401 13.1672 14.5116 13.1313 14.4772 13.1025C14.4428 13.0738 14.4033 13.0527 14.3611 13.0407C14.3188 13.0287 14.2748 13.026 14.2315 13.0327C14.1883 13.0394 14.1467 13.0554 14.1095 13.0797C14.0722 13.104 14.0399 13.1362 14.0146 13.1742C13.9894 13.2122 13.9716 13.2553 13.9624 13.3008C13.8896 13.5973 13.7588 13.874 13.5787 14.1128V14.1128C13.2933 14.4884 12.8991 14.7524 12.4578 14.8634C12.0165 14.9744 11.5531 14.9261 11.1403 14.7261C10.7275 14.526 10.3887 14.1856 10.1771 13.7581C9.96547 13.3307 9.89297 12.8405 9.97098 12.3644C10.049 11.8883 10.2731 11.4533 10.6081 11.1276C10.9431 10.8019 11.3701 10.604 11.8221 10.5649C12.274 10.5258 12.7254 10.6478 13.1053 10.9116C13.4852 11.1755 13.7721 11.5663 13.9211 12.0228C13.9347 12.0656 13.9562 12.1051 13.9842 12.1391C14.0122 12.1731 14.0463 12.2008 14.0844 12.2207C14.1225 12.2406 14.1639 12.2522 14.2062 12.255C14.2486 12.2578 14.291 12.2516 14.3311 12.2368C14.4122 12.2062 14.4786 12.1427 14.5159 12.06C14.5532 11.9774 14.5582 11.8824 14.53 11.7958C14.4031 11.4177 14.2026 11.0724 13.9417 10.7826C13.6808 10.4929 13.3655 10.2651 13.0163 10.1142C12.6671 9.96339 12.2919 9.89288 11.9154 9.90733C11.5388 9.92178 11.1694 10.0209 10.8313 10.1981C10.4932 10.3753 10.194 10.6267 9.95337 10.9357C9.71273 11.2447 9.53606 11.6044 9.43494 11.9913C9.33381 12.3782 9.31051 12.7835 9.36656 13.1806C9.42261 13.5777 9.55674 13.9578 9.76018 14.2958L9.33986 14.7478C9.09541 15.0096 8.9018 15.3202 8.77011 15.6618C8.63842 16.0035 8.57124 16.3695 8.57241 16.7388V18.1528H3.89357V16.8798ZM9.21226 16.7348C9.21156 16.4565 9.26232 16.1808 9.36165 15.9234C9.46098 15.666 9.60692 15.432 9.79114 15.2348L10.1664 14.8278C10.6598 15.3303 11.3159 15.6107 11.9983 15.6107C12.6807 15.6107 13.3368 15.3303 13.8301 14.8278L14.2054 15.2338C14.3896 15.431 14.5356 15.665 14.6349 15.9224C14.7342 16.1798 14.785 16.4555 14.7843 16.7338V18.1478H9.21226V16.7348Z" fill="#FF6421"/>
<path d="M8.39536 9.222H15.2874C15.6621 9.22174 16.0213 9.06298 16.2862 8.78061C16.5512 8.49824 16.7001 8.11533 16.7004 7.716V2.506C16.7001 2.10667 16.5512 1.72376 16.2862 1.44139C16.0213 1.15902 15.6621 1.00026 15.2874 1H8.39536C8.0207 1.00026 7.66146 1.15902 7.39654 1.44139C7.13161 1.72376 6.98267 2.10667 6.98242 2.506V7.716C6.98267 8.11533 7.13161 8.49824 7.39654 8.78061C7.66146 9.06298 8.0207 9.22174 8.39536 9.222V9.222ZM7.63259 2.506C7.63284 2.29046 7.71329 2.08382 7.85628 1.93141C7.99927 1.779 8.19314 1.69327 8.39536 1.693H15.2874C15.4897 1.69327 15.6835 1.779 15.8265 1.93141C15.9695 2.08382 16.0499 2.29046 16.0502 2.506V7.716C16.0499 7.93154 15.9695 8.13817 15.8265 8.29058C15.6835 8.44299 15.4897 8.52873 15.2874 8.529H8.39536C8.19314 8.52873 7.99927 8.44299 7.85628 8.29058C7.71329 8.13817 7.63284 7.93154 7.63259 7.716V2.506Z" fill="#FF6421"/>
<path d="M10.5552 7.13801C10.6835 7.21785 10.8295 7.25951 10.9781 7.25863C11.1266 7.25775 11.2722 7.21437 11.3996 7.13302L13.398 5.88101C13.5239 5.80206 13.6282 5.68945 13.7007 5.55431C13.7732 5.41917 13.8114 5.26619 13.8114 5.11051C13.8114 4.95484 13.7732 4.80186 13.7007 4.66672C13.6282 4.53158 13.5239 4.41897 13.398 4.34002L11.3996 3.08801C11.2723 3.00848 11.1275 2.96617 10.9799 2.96534C10.8323 2.96452 10.6872 3.00522 10.5591 3.08334C10.431 3.16145 10.3244 3.27421 10.2503 3.41023C10.1762 3.54624 10.137 3.70071 10.1368 3.85801V6.35801C10.1348 6.51602 10.1725 6.67172 10.2461 6.8089C10.3197 6.94608 10.4264 7.05973 10.5552 7.13801V7.13801ZM10.878 3.68501C10.9066 3.66768 10.9389 3.65839 10.9718 3.65801C11.0048 3.65838 11.0372 3.66804 11.0656 3.68601L13.064 4.93802C13.0924 4.9556 13.116 4.98083 13.1324 5.01119C13.1488 5.04155 13.1575 5.07598 13.1575 5.11102C13.1575 5.14605 13.1488 5.18047 13.1324 5.21084C13.116 5.2412 13.0924 5.26643 13.064 5.28401L11.0656 6.53602C11.0371 6.55356 11.0048 6.5628 10.9718 6.56281C10.9389 6.56282 10.9066 6.55359 10.8781 6.53606C10.8495 6.51854 10.8258 6.49332 10.8094 6.46294C10.7929 6.43257 10.7842 6.3981 10.7841 6.36301V3.86301C10.7836 3.8268 10.7923 3.79111 10.8094 3.75976C10.8264 3.72841 10.8511 3.70258 10.8808 3.68501H10.878Z" fill="#FF6421"/>
</svg>
